<?xml version="1.0" encoding="UTF-8" ?>
<svg version="1.1" width="128" height="128" xmlns="http://www.w3.org/2000/svg" shape-rendering="crispEdges">
<rect x="13" y="0" width="102" height="3" fill="#FFFFFF" />
<rect x="10" y="1" width="3" height="67" fill="#FFFFFF" />
<rect x="115" y="1" width="3" height="59" fill="#FFFFFF" />
<rect x="8" y="2" width="2" height="67" fill="#FFFFFF" />
<rect x="118" y="2" width="2" height="60" fill="#FFFFFF" />
<rect x="7" y="3" width="1" height="67" fill="#FFFFFF" />
<rect x="13" y="3" width="71" height="1" fill="#FFFFFF" />
<rect x="84" y="3" width="6" height="32" fill="#9BADB7" />
<rect x="90" y="3" width="25" height="1" fill="#FFFFFF" />
<rect x="120" y="3" width="1" height="62" fill="#FFFFFF" />
<rect x="5" y="4" width="2" height="67" fill="#FFFFFF" />
<rect x="13" y="4" width="68" height="1" fill="#FFFFFF" />
<rect x="81" y="4" width="3" height="57" fill="#9BADB7" />
<rect x="90" y="4" width="3" height="30" fill="#9BADB7" />
<rect x="93" y="4" width="22" height="1" fill="#FFFFFF" />
<rect x="121" y="4" width="2" height="62" fill="#FFFFFF" />
<rect x="4" y="5" width="1" height="67" fill="#FFFFFF" />
<rect x="13" y="5" width="66" height="1" fill="#FFFFFF" />
<rect x="79" y="5" width="2" height="58" fill="#9BADB7" />
<rect x="93" y="5" width="2" height="28" fill="#9BADB7" />
<rect x="95" y="5" width="20" height="1" fill="#FFFFFF" />
<rect x="123" y="5" width="1" height="66" fill="#FFFFFF" />
<rect x="13" y="6" width="20" height="1" fill="#FFFFFF" />
<rect x="33" y="6" width="6" height="51" fill="#9BADB7" />
<rect x="39" y="6" width="39" height="1" fill="#FFFFFF" />
<rect x="78" y="6" width="1" height="60" fill="#9BADB7" />
<rect x="95" y="6" width="1" height="26" fill="#9BADB7" />
<rect x="96" y="6" width="19" height="1" fill="#FFFFFF" />
<rect x="3" y="7" width="1" height="67" fill="#FFFFFF" />
<rect x="13" y="7" width="17" height="1" fill="#FFFFFF" />
<rect x="30" y="7" width="3" height="30" fill="#9BADB7" />
<rect x="39" y="7" width="3" height="56" fill="#9BADB7" />
<rect x="42" y="7" width="34" height="1" fill="#FFFFFF" />
<rect x="76" y="7" width="2" height="59" fill="#9BADB7" />
<rect x="96" y="7" width="2" height="24" fill="#9BADB7" />
<rect x="98" y="7" width="17" height="1" fill="#FFFFFF" />
<rect x="124" y="7" width="1" height="97" fill="#FFFFFF" />
<rect x="2" y="8" width="1" height="67" fill="#FFFFFF" />
<rect x="13" y="8" width="15" height="1" fill="#FFFFFF" />
<rect x="28" y="8" width="2" height="28" fill="#9BADB7" />
<rect x="42" y="8" width="2" height="58" fill="#9BADB7" />
<rect x="44" y="8" width="31" height="1" fill="#FFFFFF" />
<rect x="75" y="8" width="1" height="60" fill="#9BADB7" />
<rect x="98" y="8" width="1" height="22" fill="#9BADB7" />
<rect x="99" y="8" width="16" height="2" fill="#FFFFFF" />
<rect x="125" y="8" width="1" height="97" fill="#FFFFFF" />
<rect x="13" y="9" width="14" height="1" fill="#FFFFFF" />
<rect x="27" y="9" width="1" height="26" fill="#9BADB7" />
<rect x="44" y="9" width="1" height="58" fill="#9BADB7" />
<rect x="45" y="9" width="30" height="1" fill="#FFFFFF" />
<rect x="1" y="10" width="1" height="67" fill="#FFFFFF" />
<rect x="13" y="10" width="12" height="1" fill="#FFFFFF" />
<rect x="25" y="10" width="2" height="24" fill="#9BADB7" />
<rect x="45" y="10" width="2" height="58" fill="#9BADB7" />
<rect x="47" y="10" width="27" height="1" fill="#FFFFFF" />
<rect x="74" y="10" width="1" height="58" fill="#9BADB7" />
<rect x="99" y="10" width="1" height="18" fill="#9BADB7" />
<rect x="100" y="10" width="15" height="1" fill="#FFFFFF" />
<rect x="126" y="10" width="1" height="97" fill="#FFFFFF" />
<rect x="13" y="11" width="11" height="2" fill="#FFFFFF" />
<rect x="24" y="11" width="1" height="22" fill="#9BADB7" />
<rect x="47" y="11" width="1" height="58" fill="#9BADB7" />
<rect x="48" y="11" width="25" height="2" fill="#FFFFFF" />
<rect x="73" y="11" width="1" height="58" fill="#9BADB7" />
<rect x="100" y="11" width="1" height="16" fill="#9BADB7" />
<rect x="101" y="11" width="14" height="2" fill="#FFFFFF" />
<rect x="0" y="13" width="1" height="67" fill="#FFFFFF" />
<rect x="13" y="13" width="10" height="1" fill="#FFFFFF" />
<rect x="23" y="13" width="1" height="18" fill="#9BADB7" />
<rect x="48" y="13" width="1" height="57" fill="#9BADB7" />
<rect x="49" y="13" width="23" height="1" fill="#FFFFFF" />
<rect x="72" y="13" width="1" height="56" fill="#9BADB7" />
<rect x="101" y="13" width="1" height="12" fill="#9BADB7" />
<rect x="102" y="13" width="13" height="3" fill="#FFFFFF" />
<rect x="127" y="13" width="1" height="97" fill="#FFFFFF" />
<rect x="13" y="14" width="9" height="2" fill="#FFFFFF" />
<rect x="22" y="14" width="1" height="16" fill="#9BADB7" />
<rect x="49" y="14" width="1" height="56" fill="#9BADB7" />
<rect x="50" y="14" width="22" height="1" fill="#FFFFFF" />
<rect x="50" y="15" width="2" height="1" fill="#FFFFFF" />
<rect x="52" y="15" width="18" height="55" fill="#9BADB7" />
<rect x="70" y="15" width="2" height="1" fill="#FFFFFF" />
<rect x="13" y="16" width="8" height="3" fill="#FFFFFF" />
<rect x="21" y="16" width="1" height="12" fill="#9BADB7" />
<rect x="50" y="16" width="2" height="54" fill="#9BADB7" />
<rect x="70" y="16" width="2" height="53" fill="#9BADB7" />
<rect x="102" y="16" width="1" height="6" fill="#9BADB7" />
<rect x="103" y="16" width="12" height="42" fill="#FFFFFF" />
<rect x="13" y="19" width="7" height="48" fill="#FFFFFF" />
<rect x="20" y="19" width="1" height="6" fill="#9BADB7" />
<rect x="102" y="22" width="1" height="37" fill="#FFFFFF" />
<rect x="20" y="25" width="1" height="43" fill="#FFFFFF" />
<rect x="101" y="25" width="1" height="35" fill="#FFFFFF" />
<rect x="100" y="27" width="1" height="33" fill="#FFFFFF" />
<rect x="21" y="28" width="1" height="40" fill="#FFFFFF" />
<rect x="99" y="28" width="1" height="33" fill="#FFFFFF" />
<rect x="22" y="30" width="1" height="39" fill="#FFFFFF" />
<rect x="98" y="30" width="1" height="32" fill="#FFFFFF" />
<rect x="23" y="31" width="1" height="38" fill="#FFFFFF" />
<rect x="96" y="31" width="2" height="31" fill="#FFFFFF" />
<rect x="95" y="32" width="1" height="33" fill="#FFFFFF" />
<rect x="24" y="33" width="1" height="37" fill="#FFFFFF" />
<rect x="93" y="33" width="2" height="33" fill="#FFFFFF" />
<rect x="25" y="34" width="2" height="37" fill="#FFFFFF" />
<rect x="90" y="34" width="3" height="37" fill="#FFFFFF" />
<rect x="27" y="35" width="1" height="37" fill="#FFFFFF" />
<rect x="84" y="35" width="5" height="19" fill="#9BADB7" />
<rect x="89" y="35" width="1" height="2" fill="#FFFFFF" />
<rect x="28" y="36" width="2" height="38" fill="#FFFFFF" />
<rect x="30" y="37" width="2" height="3" fill="#FFFFFF" />
<rect x="32" y="37" width="1" height="18" fill="#9BADB7" />
<rect x="89" y="37" width="1" height="14" fill="#9BADB7" />
<rect x="30" y="40" width="1" height="37" fill="#FFFFFF" />
<rect x="31" y="40" width="1" height="12" fill="#9BADB7" />
<rect x="89" y="51" width="1" height="25" fill="#FFFFFF" />
<rect x="31" y="52" width="1" height="28" fill="#FFFFFF" />
<rect x="84" y="54" width="4" height="2" fill="#9BADB7" />
<rect x="88" y="54" width="1" height="22" fill="#FFFFFF" />
<rect x="32" y="55" width="1" height="27" fill="#FFFFFF" />
<rect x="84" y="56" width="3" height="1" fill="#9BADB7" />
<rect x="87" y="56" width="1" height="19" fill="#FFFFFF" />
<rect x="33" y="57" width="1" height="25" fill="#FFFFFF" />
<rect x="34" y="57" width="5" height="1" fill="#9BADB7" />
<rect x="84" y="57" width="2" height="2" fill="#9BADB7" />
<rect x="86" y="57" width="1" height="18" fill="#FFFFFF" />
<rect x="34" y="58" width="1" height="23" fill="#FFFFFF" />
<rect x="35" y="58" width="4" height="2" fill="#9BADB7" />
<rect x="103" y="58" width="2" height="1" fill="#FFFFFF" />
<rect x="105" y="58" width="6" height="70" fill="#9BADB7" />
<rect x="111" y="58" width="4" height="1" fill="#FFFFFF" />
<rect x="84" y="59" width="1" height="1" fill="#9BADB7" />
<rect x="85" y="59" width="1" height="16" fill="#FFFFFF" />
<rect x="102" y="59" width="3" height="69" fill="#9BADB7" />
<rect x="111" y="59" width="3" height="30" fill="#9BADB7" />
<rect x="114" y="59" width="1" height="1" fill="#FFFFFF" />
<rect x="35" y="60" width="1" height="21" fill="#FFFFFF" />
<rect x="36" y="60" width="3" height="1" fill="#9BADB7" />
<rect x="84" y="60" width="1" height="14" fill="#FFFFFF" />
<rect x="100" y="60" width="2" height="68" fill="#9BADB7" />
<rect x="114" y="60" width="2" height="28" fill="#9BADB7" />
<rect x="116" y="60" width="2" height="1" fill="#FFFFFF" />
<rect x="36" y="61" width="1" height="19" fill="#FFFFFF" />
<rect x="37" y="61" width="2" height="1" fill="#9BADB7" />
<rect x="81" y="61" width="2" height="1" fill="#9BADB7" />
<rect x="83" y="61" width="1" height="13" fill="#FFFFFF" />
<rect x="99" y="61" width="1" height="67" fill="#9BADB7" />
<rect x="116" y="61" width="1" height="26" fill="#9BADB7" />
<rect x="117" y="61" width="1" height="1" fill="#FFFFFF" />
<rect x="37" y="62" width="1" height="18" fill="#FFFFFF" />
<rect x="38" y="62" width="1" height="1" fill="#9BADB7" />
<rect x="81" y="62" width="2" height="11" fill="#FFFFFF" />
<rect x="96" y="62" width="1" height="1" fill="#FFFFFF" />
<rect x="97" y="62" width="2" height="66" fill="#9BADB7" />
<rect x="117" y="62" width="2" height="24" fill="#9BADB7" />
<rect x="119" y="62" width="1" height="1" fill="#FFFFFF" />
<rect x="38" y="63" width="2" height="16" fill="#FFFFFF" />
<rect x="40" y="63" width="2" height="1" fill="#9BADB7" />
<rect x="79" y="63" width="1" height="2" fill="#9BADB7" />
<rect x="80" y="63" width="1" height="10" fill="#FFFFFF" />
<rect x="96" y="63" width="1" height="65" fill="#9BADB7" />
<rect x="119" y="63" width="1" height="22" fill="#9BADB7" />
<rect x="40" y="64" width="1" height="15" fill="#FFFFFF" />
<rect x="41" y="64" width="1" height="1" fill="#9BADB7" />
<rect x="41" y="65" width="1" height="13" fill="#FFFFFF" />
<rect x="79" y="65" width="1" height="8" fill="#FFFFFF" />
<rect x="95" y="65" width="1" height="63" fill="#9BADB7" />
<rect x="120" y="65" width="1" height="18" fill="#9BADB7" />
<rect x="42" y="66" width="1" height="12" fill="#FFFFFF" />
<rect x="43" y="66" width="1" height="1" fill="#9BADB7" />
<rect x="76" y="66" width="1" height="1" fill="#9BADB7" />
<rect x="77" y="66" width="2" height="7" fill="#FFFFFF" />
<rect x="93" y="66" width="1" height="2" fill="#FFFFFF" />
<rect x="94" y="66" width="1" height="62" fill="#9BADB7" />
<rect x="121" y="66" width="1" height="16" fill="#9BADB7" />
<rect x="122" y="66" width="1" height="2" fill="#FFFFFF" />
<rect x="13" y="67" width="6" height="61" fill="#9BADB7" />
<rect x="19" y="67" width="1" height="1" fill="#FFFFFF" />
<rect x="43" y="67" width="2" height="10" fill="#FFFFFF" />
<rect x="76" y="67" width="1" height="6" fill="#FFFFFF" />
<rect x="10" y="68" width="3" height="59" fill="#9BADB7" />
<rect x="19" y="68" width="3" height="60" fill="#9BADB7" />
<rect x="45" y="68" width="1" height="9" fill="#FFFFFF" />
<rect x="46" y="68" width="1" height="1" fill="#9BADB7" />
<rect x="74" y="68" width="2" height="4" fill="#FFFFFF" />
<rect x="93" y="68" width="1" height="60" fill="#9BADB7" />
<rect x="122" y="68" width="1" height="12" fill="#9BADB7" />
<rect x="8" y="69" width="2" height="28" fill="#9BADB7" />
<rect x="22" y="69" width="2" height="59" fill="#9BADB7" />
<rect x="46" y="69" width="2" height="7" fill="#FFFFFF" />
<rect x="70" y="69" width="1" height="1" fill="#9BADB7" />
<rect x="71" y="69" width="3" height="3" fill="#FFFFFF" />
<rect x="7" y="70" width="1" height="26" fill="#9BADB7" />
<rect x="24" y="70" width="1" height="58" fill="#9BADB7" />
<rect x="48" y="70" width="3" height="5" fill="#FFFFFF" />
<rect x="51" y="70" width="14" height="1" fill="#9BADB7" />
<rect x="65" y="70" width="6" height="2" fill="#FFFFFF" />
<rect x="5" y="71" width="2" height="24" fill="#9BADB7" />
<rect x="25" y="71" width="2" height="57" fill="#9BADB7" />
<rect x="51" y="71" width="14" height="1" fill="#FFFFFF" />
<rect x="90" y="71" width="2" height="5" fill="#FFFFFF" />
<rect x="92" y="71" width="1" height="57" fill="#9BADB7" />
<rect x="123" y="71" width="1" height="6" fill="#9BADB7" />
<rect x="4" y="72" width="1" height="22" fill="#9BADB7" />
<rect x="27" y="72" width="1" height="56" fill="#9BADB7" />
<rect x="51" y="72" width="8" height="1" fill="#FFFFFF" />
<rect x="59" y="72" width="17" height="56" fill="#9BADB7" />
<rect x="51" y="73" width="3" height="1" fill="#FFFFFF" />
<rect x="54" y="73" width="5" height="55" fill="#9BADB7" />
<rect x="76" y="73" width="6" height="55" fill="#9BADB7" />
<rect x="82" y="73" width="1" height="1" fill="#FFFFFF" />
<rect x="3" y="74" width="1" height="18" fill="#9BADB7" />
<rect x="28" y="74" width="1" height="54" fill="#9BADB7" />
<rect x="29" y="74" width="1" height="1" fill="#FFFFFF" />
<rect x="51" y="74" width="3" height="54" fill="#9BADB7" />
<rect x="82" y="74" width="3" height="54" fill="#9BADB7" />
<rect x="2" y="75" width="1" height="16" fill="#9BADB7" />
<rect x="29" y="75" width="1" height="53" fill="#9BADB7" />
<rect x="48" y="75" width="1" height="1" fill="#FFFFFF" />
<rect x="49" y="75" width="2" height="53" fill="#9BADB7" />
<rect x="85" y="75" width="3" height="53" fill="#9BADB7" />
<rect x="46" y="76" width="3" height="52" fill="#9BADB7" />
<rect x="88" y="76" width="3" height="52" fill="#9BADB7" />
<rect x="91" y="76" width="1" height="1" fill="#FFFFFF" />
<rect x="1" y="77" width="1" height="12" fill="#9BADB7" />
<rect x="30" y="77" width="1" height="51" fill="#9BADB7" />
<rect x="43" y="77" width="3" height="51" fill="#9BADB7" />
<rect x="91" y="77" width="1" height="51" fill="#9BADB7" />
<rect x="123" y="77" width="1" height="25" fill="#FFFFFF" />
<rect x="41" y="78" width="2" height="50" fill="#9BADB7" />
<rect x="38" y="79" width="3" height="49" fill="#9BADB7" />
<rect x="0" y="80" width="1" height="6" fill="#9BADB7" />
<rect x="31" y="80" width="1" height="48" fill="#9BADB7" />
<rect x="36" y="80" width="2" height="48" fill="#9BADB7" />
<rect x="122" y="80" width="1" height="21" fill="#FFFFFF" />
<rect x="34" y="81" width="2" height="47" fill="#9BADB7" />
<rect x="32" y="82" width="2" height="46" fill="#9BADB7" />
<rect x="121" y="82" width="1" height="19" fill="#FFFFFF" />
<rect x="120" y="83" width="1" height="17" fill="#FFFFFF" />
<rect x="119" y="85" width="1" height="14" fill="#FFFFFF" />
<rect x="0" y="86" width="1" height="23" fill="#FFFFFF" />
<rect x="117" y="86" width="2" height="10" fill="#FFFFFF" />
<rect x="116" y="87" width="1" height="8" fill="#FFFFFF" />
<rect x="114" y="88" width="2" height="5" fill="#FFFFFF" />
<rect x="1" y="89" width="1" height="17" fill="#FFFFFF" />
<rect x="111" y="89" width="3" height="2" fill="#FFFFFF" />
<rect x="2" y="91" width="1" height="13" fill="#FFFFFF" />
<rect x="111" y="91" width="1" height="37" fill="#9BADB7" />
<rect x="112" y="91" width="2" height="1" fill="#FFFFFF" />
<rect x="3" y="92" width="1" height="11" fill="#FFFFFF" />
<rect x="112" y="92" width="1" height="36" fill="#9BADB7" />
<rect x="113" y="92" width="1" height="1" fill="#FFFFFF" />
<rect x="113" y="93" width="2" height="35" fill="#9BADB7" />
<rect x="115" y="93" width="1" height="1" fill="#FFFFFF" />
<rect x="4" y="94" width="1" height="7" fill="#FFFFFF" />
<rect x="115" y="94" width="1" height="34" fill="#9BADB7" />
<rect x="5" y="95" width="2" height="5" fill="#FFFFFF" />
<rect x="116" y="95" width="1" height="33" fill="#9BADB7" />
<rect x="7" y="96" width="1" height="3" fill="#FFFFFF" />
<rect x="117" y="96" width="1" height="32" fill="#9BADB7" />
<rect x="118" y="96" width="1" height="2" fill="#FFFFFF" />
<rect x="8" y="97" width="2" height="1" fill="#FFFFFF" />
<rect x="8" y="98" width="2" height="28" fill="#9BADB7" />
<rect x="118" y="98" width="1" height="29" fill="#9BADB7" />
<rect x="7" y="99" width="1" height="26" fill="#9BADB7" />
<rect x="119" y="99" width="1" height="28" fill="#9BADB7" />
<rect x="5" y="100" width="2" height="24" fill="#9BADB7" />
<rect x="120" y="100" width="1" height="26" fill="#9BADB7" />
<rect x="4" y="101" width="1" height="22" fill="#9BADB7" />
<rect x="121" y="101" width="2" height="24" fill="#9BADB7" />
<rect x="123" y="102" width="1" height="22" fill="#9BADB7" />
<rect x="3" y="103" width="1" height="18" fill="#9BADB7" />
<rect x="2" y="104" width="1" height="16" fill="#9BADB7" />
<rect x="124" y="104" width="1" height="18" fill="#9BADB7" />
<rect x="125" y="105" width="1" height="16" fill="#9BADB7" />
<rect x="1" y="106" width="1" height="12" fill="#9BADB7" />
<rect x="126" y="107" width="1" height="12" fill="#9BADB7" />
<rect x="0" y="109" width="1" height="6" fill="#9BADB7" />
<rect x="127" y="110" width="1" height="6" fill="#9BADB7" />
</svg>