<?xml version="1.0" encoding="UTF-8" ?>
<svg version="1.1" width="128" height="128" xmlns="http://www.w3.org/2000/svg" shape-rendering="crispEdges">
<rect x="20" y="0" width="88" height="18" fill="#FFFFFF" />
<rect x="16" y="1" width="4" height="80" fill="#FFFFFF" />
<rect x="108" y="1" width="4" height="87" fill="#FFFFFF" />
<rect x="14" y="2" width="2" height="84" fill="#FFFFFF" />
<rect x="112" y="2" width="2" height="93" fill="#FFFFFF" />
<rect x="12" y="3" width="2" height="87" fill="#FFFFFF" />
<rect x="114" y="3" width="2" height="98" fill="#FFFFFF" />
<rect x="11" y="4" width="1" height="90" fill="#FFFFFF" />
<rect x="116" y="4" width="1" height="104" fill="#FFFFFF" />
<rect x="9" y="5" width="2" height="91" fill="#FFFFFF" />
<rect x="117" y="5" width="2" height="106" fill="#FFFFFF" />
<rect x="8" y="6" width="1" height="96" fill="#FFFFFF" />
<rect x="119" y="6" width="1" height="116" fill="#FFFFFF" />
<rect x="7" y="7" width="1" height="99" fill="#FFFFFF" />
<rect x="120" y="7" width="1" height="114" fill="#FFFFFF" />
<rect x="6" y="8" width="1" height="103" fill="#FFFFFF" />
<rect x="121" y="8" width="1" height="112" fill="#FFFFFF" />
<rect x="5" y="9" width="1" height="110" fill="#FFFFFF" />
<rect x="122" y="9" width="1" height="110" fill="#FFFFFF" />
<rect x="4" y="11" width="1" height="106" fill="#FFFFFF" />
<rect x="123" y="11" width="1" height="106" fill="#FFFFFF" />
<rect x="3" y="12" width="1" height="104" fill="#FFFFFF" />
<rect x="124" y="12" width="1" height="104" fill="#FFFFFF" />
<rect x="2" y="14" width="1" height="100" fill="#FFFFFF" />
<rect x="125" y="14" width="1" height="100" fill="#FFFFFF" />
<rect x="1" y="16" width="1" height="96" fill="#FFFFFF" />
<rect x="126" y="16" width="1" height="96" fill="#FFFFFF" />
<rect x="20" y="18" width="31" height="1" fill="#FFFFFF" />
<rect x="51" y="18" width="3" height="49" fill="#9BADB7" />
<rect x="54" y="18" width="54" height="1" fill="#FFFFFF" />
<rect x="20" y="19" width="28" height="1" fill="#FFFFFF" />
<rect x="48" y="19" width="3" height="48" fill="#9BADB7" />
<rect x="54" y="19" width="10" height="47" fill="#9BADB7" />
<rect x="64" y="19" width="44" height="1" fill="#FFFFFF" />
<rect x="0" y="20" width="1" height="88" fill="#FFFFFF" />
<rect x="20" y="20" width="26" height="1" fill="#FFFFFF" />
<rect x="46" y="20" width="2" height="46" fill="#9BADB7" />
<rect x="64" y="20" width="4" height="45" fill="#9BADB7" />
<rect x="68" y="20" width="40" height="1" fill="#FFFFFF" />
<rect x="127" y="20" width="1" height="88" fill="#FFFFFF" />
<rect x="20" y="21" width="24" height="1" fill="#FFFFFF" />
<rect x="44" y="21" width="2" height="44" fill="#9BADB7" />
<rect x="68" y="21" width="3" height="42" fill="#9BADB7" />
<rect x="71" y="21" width="37" height="1" fill="#FFFFFF" />
<rect x="20" y="22" width="22" height="1" fill="#FFFFFF" />
<rect x="42" y="22" width="2" height="42" fill="#9BADB7" />
<rect x="71" y="22" width="2" height="40" fill="#9BADB7" />
<rect x="73" y="22" width="35" height="1" fill="#FFFFFF" />
<rect x="20" y="23" width="21" height="1" fill="#FFFFFF" />
<rect x="41" y="23" width="1" height="40" fill="#9BADB7" />
<rect x="73" y="23" width="1" height="38" fill="#9BADB7" />
<rect x="74" y="23" width="34" height="1" fill="#FFFFFF" />
<rect x="20" y="24" width="20" height="1" fill="#FFFFFF" />
<rect x="40" y="24" width="1" height="37" fill="#9BADB7" />
<rect x="74" y="24" width="1" height="37" fill="#9BADB7" />
<rect x="75" y="24" width="33" height="1" fill="#FFFFFF" />
<rect x="20" y="25" width="19" height="2" fill="#FFFFFF" />
<rect x="39" y="25" width="1" height="34" fill="#9BADB7" />
<rect x="75" y="25" width="1" height="35" fill="#9BADB7" />
<rect x="76" y="25" width="32" height="2" fill="#FFFFFF" />
<rect x="20" y="27" width="18" height="3" fill="#FFFFFF" />
<rect x="38" y="27" width="1" height="30" fill="#9BADB7" />
<rect x="76" y="27" width="1" height="32" fill="#9BADB7" />
<rect x="77" y="27" width="31" height="2" fill="#FFFFFF" />
<rect x="77" y="29" width="1" height="29" fill="#9BADB7" />
<rect x="78" y="29" width="30" height="3" fill="#FFFFFF" />
<rect x="20" y="30" width="17" height="5" fill="#FFFFFF" />
<rect x="37" y="30" width="1" height="24" fill="#9BADB7" />
<rect x="78" y="32" width="1" height="24" fill="#9BADB7" />
<rect x="79" y="32" width="29" height="7" fill="#FFFFFF" />
<rect x="20" y="35" width="16" height="38" fill="#FFFFFF" />
<rect x="36" y="35" width="1" height="6" fill="#9BADB7" />
<rect x="79" y="39" width="1" height="16" fill="#9BADB7" />
<rect x="80" y="39" width="28" height="32" fill="#FFFFFF" />
<rect x="36" y="41" width="1" height="32" fill="#FFFFFF" />
<rect x="37" y="54" width="1" height="19" fill="#FFFFFF" />
<rect x="79" y="55" width="1" height="15" fill="#FFFFFF" />
<rect x="78" y="56" width="1" height="14" fill="#FFFFFF" />
<rect x="38" y="57" width="1" height="16" fill="#FFFFFF" />
<rect x="77" y="58" width="1" height="12" fill="#FFFFFF" />
<rect x="39" y="59" width="1" height="14" fill="#FFFFFF" />
<rect x="76" y="59" width="1" height="11" fill="#FFFFFF" />
<rect x="75" y="60" width="1" height="10" fill="#FFFFFF" />
<rect x="40" y="61" width="1" height="12" fill="#FFFFFF" />
<rect x="73" y="61" width="2" height="9" fill="#FFFFFF" />
<rect x="71" y="62" width="1" height="1" fill="#9BADB7" />
<rect x="72" y="62" width="1" height="8" fill="#FFFFFF" />
<rect x="41" y="63" width="1" height="10" fill="#FFFFFF" />
<rect x="68" y="63" width="2" height="1" fill="#9BADB7" />
<rect x="70" y="63" width="2" height="7" fill="#FFFFFF" />
<rect x="42" y="64" width="1" height="9" fill="#FFFFFF" />
<rect x="43" y="64" width="1" height="1" fill="#9BADB7" />
<rect x="68" y="64" width="2" height="6" fill="#FFFFFF" />
<rect x="43" y="65" width="2" height="8" fill="#FFFFFF" />
<rect x="45" y="65" width="1" height="1" fill="#9BADB7" />
<rect x="64" y="65" width="2" height="1" fill="#9BADB7" />
<rect x="66" y="65" width="2" height="5" fill="#FFFFFF" />
<rect x="45" y="66" width="2" height="6" fill="#FFFFFF" />
<rect x="47" y="66" width="1" height="1" fill="#9BADB7" />
<rect x="54" y="66" width="7" height="1" fill="#9BADB7" />
<rect x="61" y="66" width="5" height="5" fill="#FFFFFF" />
<rect x="47" y="67" width="14" height="4" fill="#FFFFFF" />
<rect x="66" y="70" width="1" height="1" fill="#FFFFFF" />
<rect x="67" y="70" width="13" height="58" fill="#9BADB7" />
<rect x="47" y="71" width="10" height="1" fill="#FFFFFF" />
<rect x="57" y="71" width="10" height="57" fill="#9BADB7" />
<rect x="80" y="71" width="6" height="57" fill="#9BADB7" />
<rect x="86" y="71" width="22" height="1" fill="#FFFFFF" />
<rect x="45" y="72" width="1" height="1" fill="#FFFFFF" />
<rect x="46" y="72" width="11" height="56" fill="#9BADB7" />
<rect x="86" y="72" width="3" height="56" fill="#9BADB7" />
<rect x="89" y="72" width="19" height="1" fill="#FFFFFF" />
<rect x="20" y="73" width="15" height="1" fill="#FFFFFF" />
<rect x="35" y="73" width="11" height="55" fill="#9BADB7" />
<rect x="89" y="73" width="2" height="55" fill="#9BADB7" />
<rect x="91" y="73" width="17" height="1" fill="#FFFFFF" />
<rect x="20" y="74" width="10" height="1" fill="#FFFFFF" />
<rect x="30" y="74" width="5" height="54" fill="#9BADB7" />
<rect x="91" y="74" width="3" height="54" fill="#9BADB7" />
<rect x="94" y="74" width="14" height="1" fill="#FFFFFF" />
<rect x="20" y="75" width="8" height="1" fill="#FFFFFF" />
<rect x="28" y="75" width="2" height="53" fill="#9BADB7" />
<rect x="94" y="75" width="2" height="53" fill="#9BADB7" />
<rect x="96" y="75" width="12" height="1" fill="#FFFFFF" />
<rect x="20" y="76" width="7" height="1" fill="#FFFFFF" />
<rect x="27" y="76" width="1" height="52" fill="#9BADB7" />
<rect x="96" y="76" width="2" height="52" fill="#9BADB7" />
<rect x="98" y="76" width="10" height="1" fill="#FFFFFF" />
<rect x="20" y="77" width="5" height="1" fill="#FFFFFF" />
<rect x="25" y="77" width="2" height="51" fill="#9BADB7" />
<rect x="98" y="77" width="1" height="51" fill="#9BADB7" />
<rect x="99" y="77" width="9" height="1" fill="#FFFFFF" />
<rect x="20" y="78" width="3" height="1" fill="#FFFFFF" />
<rect x="23" y="78" width="2" height="50" fill="#9BADB7" />
<rect x="99" y="78" width="1" height="50" fill="#9BADB7" />
<rect x="100" y="78" width="8" height="1" fill="#FFFFFF" />
<rect x="20" y="79" width="2" height="1" fill="#FFFFFF" />
<rect x="22" y="79" width="1" height="49" fill="#9BADB7" />
<rect x="100" y="79" width="1" height="49" fill="#9BADB7" />
<rect x="101" y="79" width="7" height="1" fill="#FFFFFF" />
<rect x="20" y="80" width="2" height="48" fill="#9BADB7" />
<rect x="101" y="80" width="2" height="48" fill="#9BADB7" />
<rect x="103" y="80" width="5" height="2" fill="#FFFFFF" />
<rect x="16" y="81" width="3" height="1" fill="#FFFFFF" />
<rect x="19" y="81" width="1" height="46" fill="#9BADB7" />
<rect x="16" y="82" width="2" height="1" fill="#FFFFFF" />
<rect x="18" y="82" width="1" height="45" fill="#9BADB7" />
<rect x="103" y="82" width="1" height="46" fill="#9BADB7" />
<rect x="104" y="82" width="4" height="1" fill="#FFFFFF" />
<rect x="16" y="83" width="1" height="2" fill="#FFFFFF" />
<rect x="17" y="83" width="1" height="44" fill="#9BADB7" />
<rect x="104" y="83" width="1" height="45" fill="#9BADB7" />
<rect x="105" y="83" width="3" height="1" fill="#FFFFFF" />
<rect x="105" y="84" width="1" height="44" fill="#9BADB7" />
<rect x="106" y="84" width="2" height="1" fill="#FFFFFF" />
<rect x="16" y="85" width="1" height="42" fill="#9BADB7" />
<rect x="106" y="85" width="1" height="43" fill="#9BADB7" />
<rect x="107" y="85" width="1" height="2" fill="#FFFFFF" />
<rect x="14" y="86" width="1" height="2" fill="#FFFFFF" />
<rect x="15" y="86" width="1" height="40" fill="#9BADB7" />
<rect x="107" y="87" width="1" height="41" fill="#9BADB7" />
<rect x="14" y="88" width="1" height="38" fill="#9BADB7" />
<rect x="108" y="88" width="1" height="39" fill="#9BADB7" />
<rect x="109" y="88" width="3" height="1" fill="#FFFFFF" />
<rect x="109" y="89" width="1" height="38" fill="#9BADB7" />
<rect x="110" y="89" width="2" height="2" fill="#FFFFFF" />
<rect x="12" y="90" width="1" height="2" fill="#FFFFFF" />
<rect x="13" y="90" width="1" height="35" fill="#9BADB7" />
<rect x="110" y="91" width="1" height="36" fill="#9BADB7" />
<rect x="111" y="91" width="1" height="2" fill="#FFFFFF" />
<rect x="12" y="92" width="1" height="33" fill="#9BADB7" />
<rect x="111" y="93" width="1" height="34" fill="#9BADB7" />
<rect x="11" y="94" width="1" height="30" fill="#9BADB7" />
<rect x="112" y="95" width="1" height="31" fill="#9BADB7" />
<rect x="113" y="95" width="1" height="3" fill="#FFFFFF" />
<rect x="9" y="96" width="1" height="3" fill="#FFFFFF" />
<rect x="10" y="96" width="1" height="27" fill="#9BADB7" />
<rect x="113" y="98" width="1" height="28" fill="#9BADB7" />
<rect x="9" y="99" width="1" height="24" fill="#9BADB7" />
<rect x="114" y="101" width="1" height="24" fill="#9BADB7" />
<rect x="115" y="101" width="1" height="3" fill="#FFFFFF" />
<rect x="8" y="102" width="1" height="20" fill="#9BADB7" />
<rect x="115" y="104" width="1" height="21" fill="#9BADB7" />
<rect x="7" y="106" width="1" height="15" fill="#9BADB7" />
<rect x="116" y="108" width="1" height="16" fill="#9BADB7" />
<rect x="6" y="111" width="1" height="9" fill="#9BADB7" />
<rect x="117" y="111" width="1" height="12" fill="#9BADB7" />
<rect x="118" y="111" width="1" height="4" fill="#FFFFFF" />
<rect x="118" y="115" width="1" height="8" fill="#9BADB7" />
</svg>